<svg width="145" height="44" viewBox="0 0 145 44" fill="none" xmlns="http://www.w3.org/2000/svg">
<path d="M29.25 25.95C29.55 27.85 30.75 28.8 32.85 28.8C34.55 28.8 36.75 27.8167 39.45 25.85C42.1833 23.8833 44.6167 21.4833 46.75 18.65C45.55 17.2167 44.15 16 42.55 15C39.2833 19.3 34.85 22.95 29.25 25.95ZM29.2 25.6C30.4 24.9 31.55 24.1833 32.65 23.45C36.8167 20.5833 40 17.7 42.2 14.8C40.9333 13.9333 39.1667 13.0667 36.9 12.2C35.8333 13.2667 34.8333 14.4167 33.9 15.65C30.7667 19.7833 29.2 23.1 29.2 25.6ZM17.1 30.05C18.4 23.45 22.45 16.9333 29.25 10.5C27.6167 10.3 25.9 10.2 24.1 10.2C17.5667 10.2 12.0333 11.4667 7.5 14C2.83333 16.6 0.5 19.7833 0.5 23.55C0.5 25.4167 1.3 27.0167 2.9 28.35C4.8 29.9167 7.26667 30.7 10.3 30.7C12.4667 30.7 14.7333 30.4833 17.1 30.05ZM17 30.5C15.1333 30.9667 12.8667 31.2 10.2 31.2C7.56667 31.2 5.26667 30.5333 3.3 29.2C1.1 27.7333 -7.45058e-08 25.85 -7.45058e-08 23.55C-7.45058e-08 19.7167 2.3 16.4667 6.9 13.8C11.5 11.1 17.2333 9.75 24.1 9.75C25.9667 9.75 27.8333 9.86667 29.7 10.1C33.1 7.06667 36.55 4.6 40.05 2.7C43.35 0.900001 45.9333 2.02656e-06 47.8 2.02656e-06C50.9667 2.02656e-06 52.55 1.71667 52.55 5.15C52.55 9.45 50.7667 13.9833 47.2 18.75C47.7333 19.3167 48.2333 20.0833 48.7 21.05C48.8 21.1833 48.7833 21.3 48.65 21.4C48.4833 21.4667 48.3833 21.3833 48.35 21.15C48.1833 20.75 47.7333 20.0167 47 18.95C44.8333 21.85 42.3667 24.2833 39.6 26.25C36.8667 28.2167 34.6167 29.2 32.85 29.2C30.65 29.2 29.3 28.2 28.8 26.2C25.9667 27.8 22.9833 29 19.85 29.8C18.8833 32.3667 18.4 34.65 18.4 36.65C18.4 39.1167 19.4 40.9 21.4 42C22.7333 42.7667 24.2833 43.15 26.05 43.15C31.35 43.15 37.1667 40.2833 43.5 34.55L43.85 34.9C37.3833 40.7333 31.45 43.65 26.05 43.65C19.85 43.65 16.75 40.3667 16.75 33.8C16.75 32.8333 16.8333 31.7333 17 30.5ZM20 29.4C22.9333 28.6 25.85 27.4333 28.75 25.9C28.65 25.5 28.6 25.0667 28.6 24.6C28.6 20.0667 30.8167 15.7667 35.25 11.7C33.85 11.3333 32.7333 11.0667 31.9 10.9C29.7333 13.2333 27.5833 16.0167 25.45 19.25C22.9833 22.95 21.1667 26.3333 20 29.4ZM46.9 18.4C50.4 13.8 52.15 9.38334 52.15 5.15C52.15 2.05 50.7 0.500002 47.8 0.500002C45.9333 0.500002 43.6 1.4 40.8 3.2C38 5 35.15 7.45 32.25 10.55C33.0167 10.7167 34.1333 11 35.6 11.4C37.1667 10.0667 38.7833 8.95 40.45 8.05C41.95 7.25 43.0667 6.85 43.8 6.85C44.9 6.85 45.45 7.43333 45.45 8.6C45.45 10.2 44.55 12.2333 42.75 14.7C44.4167 15.7667 45.8 17 46.9 18.4ZM42.45 14.5C44.1833 12.1333 45.05 10.1667 45.05 8.6C45.05 7.76667 44.6333 7.35 43.8 7.35C42.4333 7.35 40.2167 8.88334 37.15 11.95C39.1167 12.65 40.8833 13.5 42.45 14.5ZM66.5719 32.85C66.1719 33.7167 65.7052 34.6833 65.1719 35.75C64.6385 36.7833 64.0385 37.7667 63.3719 38.7C62.7052 39.6333 61.9719 40.4167 61.1719 41.05C60.3719 41.6833 59.5219 42 58.6219 42C58.0552 42 57.5552 41.8667 57.1219 41.6C56.6885 41.3 56.3552 40.8833 56.1219 40.35C55.9219 39.7833 55.8219 39.1 55.8219 38.3C55.8219 37.5 55.9885 36.6 56.3219 35.6C55.8885 36.3667 55.4052 37.1333 54.8719 37.9C54.3719 38.6333 53.8219 39.3167 53.2219 39.95C52.6552 40.55 52.0552 41.05 51.4219 41.45C50.7885 41.8167 50.1719 42 49.5719 42C49.3052 42 49.0052 41.9833 48.6719 41.95C48.3719 41.8833 48.0719 41.7667 47.7719 41.6C47.4719 41.4333 47.1885 41.2 46.9219 40.9C46.6885 40.6 46.5219 40.2167 46.4219 39.75C46.3219 39.2167 46.3052 38.7 46.3719 38.2C46.4385 37.7 46.5552 37.2167 46.7219 36.75C46.9219 36.25 47.1385 35.7833 47.3719 35.35C47.6385 34.8833 47.8885 34.4167 48.1219 33.95C47.9552 33.95 47.7885 33.9 47.6219 33.8C47.4885 33.7 47.5052 33.4833 47.6719 33.15C47.8385 32.8833 47.9885 32.6 48.1219 32.3C48.2552 32 48.4052 31.7 48.5719 31.4C49.0719 30.4333 49.5719 29.4667 50.0719 28.5C50.5719 27.5333 51.0052 26.6667 51.3719 25.9C51.5719 25.5 51.8219 25.2333 52.1219 25.1C52.4552 24.9333 52.8552 24.85 53.3219 24.85H56.3719C56.0719 25.05 55.8052 25.2667 55.5719 25.5C55.3385 25.7 55.0885 25.95 54.8219 26.25C54.5885 26.55 54.3385 26.9167 54.0719 27.35C53.8052 27.7833 53.5052 28.35 53.1719 29.05C52.7052 29.9167 52.2885 30.75 51.9219 31.55C51.5552 32.25 51.2052 32.9667 50.8719 33.7C50.5385 34.4333 50.2552 35.0333 50.0219 35.5C49.4219 36.8 49.0885 37.8833 49.0219 38.75C48.9552 39.6167 49.0719 40.2333 49.3719 40.6C49.7052 40.9333 50.1885 40.9833 50.8219 40.75C51.4552 40.4833 52.1719 39.8833 52.9719 38.95C53.6719 38.15 54.3552 37.2 55.0219 36.1C55.7219 35 56.3885 33.8667 57.0219 32.7C57.6552 31.5 58.2552 30.3167 58.8219 29.15C59.4219 27.9833 59.9552 26.9 60.4219 25.9C60.6219 25.5 60.8719 25.2333 61.1719 25.1C61.5052 24.9333 61.9052 24.85 62.3719 24.85H65.0719C64.7052 25.15 64.3885 25.4333 64.1219 25.7C63.8552 25.9333 63.5885 26.2333 63.3219 26.6C63.0885 26.9333 62.8385 27.3667 62.5719 27.9C62.3052 28.4 61.9885 29.0333 61.6219 29.8C61.2552 30.5 60.8885 31.2333 60.5219 32C60.1885 32.7333 59.8552 33.4667 59.5219 34.2C59.2219 34.9 58.9552 35.5667 58.7219 36.2C58.4885 36.8 58.3385 37.3167 58.2719 37.75C58.0385 38.8167 58.0385 39.5833 58.2719 40.05C58.5385 40.4833 58.8552 40.7167 59.2219 40.75C59.8219 40.75 60.4219 40.4833 61.0219 39.95C61.6552 39.4167 62.2552 38.75 62.8219 37.95C63.3885 37.1167 63.9219 36.2167 64.4219 35.25C64.9552 34.25 65.4385 33.3 65.8719 32.4C66.0719 31.9667 66.2885 31.8167 66.5219 31.95C66.7885 32.05 66.8052 32.35 66.5719 32.85ZM82.593 28.5C82.3263 28.7667 81.9596 29.2667 81.493 30C81.0596 30.7 80.593 31.5167 80.093 32.45C79.6263 33.35 79.193 34.2833 78.793 35.25C78.393 36.2167 78.1096 37.0833 77.943 37.85C77.543 39.85 77.7096 40.85 78.443 40.85C78.8096 40.85 79.193 40.7 79.593 40.4C79.993 40.1 80.3763 39.7333 80.743 39.3C81.1096 38.8667 81.4596 38.4167 81.793 37.95C82.1263 37.45 82.393 37.0167 82.593 36.65C82.8596 36.2167 83.1096 36.0667 83.343 36.2C83.6096 36.3 83.6096 36.5833 83.343 37.05C82.543 38.4167 81.6763 39.6 80.743 40.6C79.8096 41.5667 78.9096 42.0833 78.043 42.15C77.643 42.1833 77.2096 42.1167 76.743 41.95C76.2763 41.75 75.893 41.4167 75.593 40.95C75.293 40.45 75.1096 39.7833 75.043 38.95C75.0096 38.0833 75.1763 37 75.543 35.7C75.143 36.3667 74.6263 37.15 73.993 38.05C73.3596 38.9167 72.6763 39.7 71.943 40.4C70.9763 41.3333 70.0763 41.8833 69.243 42.05C68.443 42.2167 67.7596 42.1 67.193 41.7C66.6263 41.2667 66.2096 40.6 65.943 39.7C65.7096 38.8 65.6763 37.75 65.843 36.55C66.0096 35.3167 66.4096 33.9833 67.043 32.55C67.7096 31.0833 68.6763 29.6 69.943 28.1C70.6763 27.2 71.5596 26.4333 72.593 25.8C73.6596 25.1667 74.7263 24.7167 75.793 24.45C76.893 24.1833 77.943 24.15 78.943 24.35C79.9763 24.55 80.843 25.0333 81.543 25.8C81.9096 26.1667 82.0096 26.5167 81.843 26.85C81.7096 27.1833 81.4263 27.3167 80.993 27.25C80.7263 26.3167 80.1763 25.75 79.343 25.55C78.543 25.35 77.6763 25.5 76.743 26C75.6096 26.6333 74.443 27.6167 73.243 28.95C72.043 30.25 70.993 31.65 70.093 33.15C69.993 33.3167 69.843 33.5833 69.643 33.95C69.443 34.3167 69.2263 34.75 68.993 35.25C68.793 35.7167 68.593 36.2167 68.393 36.75C68.2263 37.25 68.1096 37.7333 68.043 38.2C67.9096 39.0667 67.9596 39.7 68.193 40.1C68.4596 40.5 68.8096 40.7 69.243 40.7C69.7096 40.7 70.243 40.5167 70.843 40.15C71.443 39.75 72.043 39.2 72.643 38.5C73.5096 37.4333 74.293 36.3167 74.993 35.15C75.7263 33.95 76.4263 32.7333 77.093 31.5C77.6596 30.4333 78.1596 29.6167 78.593 29.05C79.0596 28.4833 79.693 28.2333 80.493 28.3C80.8263 28.3333 81.1596 28.4 81.493 28.5C81.8596 28.5667 82.2263 28.5667 82.593 28.5ZM99.343 25.9C99.543 25.5 99.793 25.2333 100.093 25.1C100.426 24.9333 100.826 24.85 101.293 24.85H103.993C103.626 25.15 103.31 25.4333 103.043 25.7C102.776 25.9333 102.51 26.2333 102.243 26.6C102.01 26.9333 101.76 27.3667 101.493 27.9C101.226 28.4 100.91 29.0333 100.543 29.8C100.176 30.5 99.8096 31.2333 99.443 32C99.1096 32.7333 98.7763 33.4667 98.443 34.2C98.143 34.9 97.8763 35.5667 97.643 36.2C97.4096 36.8 97.2596 37.3167 97.193 37.75C96.9596 38.8167 96.9596 39.5833 97.193 40.05C97.4596 40.4833 97.7763 40.7167 98.143 40.75C98.743 40.75 99.343 40.4833 99.943 39.95C100.576 39.4167 101.176 38.75 101.743 37.95C102.31 37.1167 102.843 36.2167 103.343 35.25C103.876 34.25 104.36 33.3 104.793 32.4C104.993 31.9667 105.21 31.8167 105.443 31.95C105.71 32.05 105.726 32.35 105.493 32.85C105.093 33.7167 104.626 34.6833 104.093 35.75C103.56 36.7833 102.96 37.7667 102.293 38.7C101.626 39.6333 100.893 40.4167 100.093 41.05C99.293 41.6833 98.443 42 97.543 42C96.9763 42 96.4763 41.8667 96.043 41.6C95.6096 41.3 95.2763 40.8833 95.043 40.35C94.843 39.7833 94.743 39.1 94.743 38.3C94.743 37.5 94.9096 36.6 95.243 35.6C95.4763 34.8667 95.7596 34.0833 96.093 33.25C96.4263 32.4167 96.7763 31.5833 97.143 30.75C97.543 29.8833 97.9263 29.0333 98.293 28.2C98.693 27.3667 99.043 26.6 99.343 25.9ZM88.593 39.8C89.2596 39.2333 89.8596 38.55 90.393 37.75C90.9596 36.9167 91.4763 36.0333 91.943 35.1C92.443 34.1667 92.893 33.2167 93.293 32.25C93.7263 31.2833 94.1263 30.3833 94.493 29.55C94.8596 28.6833 95.2096 27.9333 95.543 27.3C95.8763 26.6333 96.2263 26.1333 96.593 25.8C96.8596 25.5333 97.1263 25.3333 97.393 25.2C97.6596 25.0667 97.9763 24.9833 98.343 24.95C98.7096 24.8833 99.1263 24.85 99.593 24.85C100.093 24.85 100.71 24.85 101.443 24.85C101.576 24.85 101.593 24.9 101.493 25C101.393 25.0667 101.243 25.15 101.043 25.25C100.843 25.35 100.593 25.45 100.293 25.55C100.026 25.6167 99.793 25.65 99.593 25.65C98.6263 25.6167 97.943 25.8167 97.543 26.25C97.143 26.65 96.7263 27.2333 96.293 28C95.7596 28.9667 95.1763 30.2333 94.543 31.8C93.943 33.3667 93.243 34.9167 92.443 36.45C91.6763 37.95 90.793 39.25 89.793 40.35C88.8263 41.45 87.693 42 86.393 42C85.593 42 84.843 41.8667 84.143 41.6C83.4763 41.3 82.9263 40.75 82.493 39.95C81.893 38.85 81.7096 37.9667 81.943 37.3C82.2096 36.6333 82.5763 36.2167 83.043 36.05C83.5096 35.85 83.9096 35.9333 84.243 36.3C84.5763 36.6333 84.5263 37.2667 84.093 38.2C83.9596 38.4667 83.9263 38.75 83.993 39.05C84.0596 39.35 84.1763 39.6333 84.343 39.9C84.543 40.1333 84.7763 40.3333 85.043 40.5C85.343 40.6333 85.643 40.7 85.943 40.7C86.5096 40.6667 86.993 40.6 87.393 40.5C87.8263 40.3667 88.2263 40.1333 88.593 39.8ZM123.394 24.85C123.027 25.15 122.711 25.4333 122.444 25.7C122.177 25.9333 121.911 26.2333 121.644 26.6C121.411 26.9333 121.161 27.3667 120.894 27.9C120.627 28.4 120.311 29.0333 119.944 29.8C119.577 30.5 119.211 31.2333 118.844 32C118.511 32.7333 118.177 33.4667 117.844 34.2C117.544 34.9 117.277 35.5667 117.044 36.2C116.811 36.8 116.661 37.3167 116.594 37.75C116.361 38.8167 116.361 39.5833 116.594 40.05C116.861 40.4833 117.177 40.7167 117.544 40.75C118.311 40.75 119.061 40.3667 119.794 39.6C120.561 38.8 121.327 37.75 122.094 36.45C122.361 36.05 122.611 35.9167 122.844 36.05C123.111 36.15 123.111 36.4333 122.844 36.9C122.477 37.5333 122.077 38.15 121.644 38.75C121.211 39.35 120.744 39.9 120.244 40.4C119.777 40.8667 119.261 41.25 118.694 41.55C118.127 41.85 117.544 42 116.944 42C116.377 42 115.877 41.8667 115.444 41.6C115.011 41.3 114.677 40.8833 114.444 40.35C114.244 39.7833 114.144 39.1 114.144 38.3C114.144 37.5 114.311 36.6 114.644 35.6C114.211 36.3667 113.727 37.1333 113.194 37.9C112.694 38.6333 112.144 39.3167 111.544 39.95C110.977 40.55 110.377 41.05 109.744 41.45C109.111 41.8167 108.494 42 107.894 42C107.627 42 107.327 41.9833 106.994 41.95C106.694 41.8833 106.394 41.7667 106.094 41.6C105.794 41.4333 105.511 41.2 105.244 40.9C105.011 40.6 104.844 40.2167 104.744 39.75C104.644 39.2167 104.627 38.7 104.694 38.2C104.761 37.7 104.877 37.2167 105.044 36.75C105.244 36.25 105.461 35.7833 105.694 35.35C105.961 34.8833 106.211 34.4167 106.444 33.95C106.277 33.95 106.111 33.9 105.944 33.8C105.811 33.7 105.827 33.4833 105.994 33.15C106.161 32.8833 106.311 32.6 106.444 32.3C106.577 32 106.727 31.7 106.894 31.4C107.394 30.4333 107.894 29.4667 108.394 28.5C108.894 27.5333 109.327 26.6667 109.694 25.9C109.894 25.5 110.144 25.2333 110.444 25.1C110.777 24.9333 111.177 24.85 111.644 24.85H114.694C114.394 25.05 114.127 25.2667 113.894 25.5C113.661 25.7 113.411 25.95 113.144 26.25C112.911 26.55 112.661 26.9167 112.394 27.35C112.127 27.7833 111.827 28.35 111.494 29.05C111.027 29.9167 110.611 30.75 110.244 31.55C109.877 32.25 109.527 32.9667 109.194 33.7C108.861 34.4333 108.577 35.0333 108.344 35.5C107.744 36.8 107.411 37.8833 107.344 38.75C107.277 39.6167 107.394 40.2333 107.694 40.6C108.027 40.9333 108.511 40.9833 109.144 40.75C109.777 40.4833 110.494 39.8833 111.294 38.95C111.994 38.15 112.677 37.2 113.344 36.1C114.044 35 114.711 33.8667 115.344 32.7C115.977 31.5 116.577 30.3167 117.144 29.15C117.744 27.9833 118.277 26.9 118.744 25.9C118.944 25.5 119.194 25.2333 119.494 25.1C119.827 24.9333 120.227 24.85 120.694 24.85H123.394ZM136.594 34.85C136.361 35.3167 136.111 35.9 135.844 36.6C135.611 37.2667 135.444 37.9333 135.344 38.6C135.244 39.2333 135.261 39.7833 135.394 40.25C135.561 40.7167 135.944 40.95 136.544 40.95C137.177 40.95 137.827 40.6 138.494 39.9C139.194 39.2 139.844 38.3833 140.444 37.45C141.044 36.5167 141.577 35.5833 142.044 34.65C142.544 33.6833 142.927 32.9333 143.194 32.4C143.394 31.9667 143.611 31.8167 143.844 31.95C144.111 32.05 144.127 32.35 143.894 32.85C143.527 33.6167 143.061 34.5333 142.494 35.6C141.961 36.6667 141.344 37.7 140.644 38.7C139.944 39.6667 139.177 40.5 138.344 41.2C137.511 41.9 136.611 42.25 135.644 42.25C135.244 42.25 134.844 42.15 134.444 41.95C134.077 41.7167 133.727 41.3667 133.394 40.9C133.127 40.4667 132.944 39.8167 132.844 38.95C132.777 38.0833 132.894 37.2667 133.194 36.5C133.594 35.6667 133.944 34.9333 134.244 34.3C134.577 33.6333 134.894 33 135.194 32.4C135.527 31.8 135.861 31.1833 136.194 30.55C136.561 29.9167 136.961 29.2 137.394 28.4C137.727 27.8 137.994 27.3 138.194 26.9C138.427 26.4667 138.644 26.1333 138.844 25.9C139.077 25.6333 139.311 25.45 139.544 25.35C139.811 25.25 140.144 25.2167 140.544 25.25C140.877 25.2833 141.211 25.35 141.544 25.45C141.911 25.5167 142.277 25.5167 142.644 25.45C142.277 25.65 141.827 26.0833 141.294 26.75C140.794 27.4167 140.261 28.2 139.694 29.1C139.161 30 138.611 30.9667 138.044 32C137.511 33 137.027 33.95 136.594 34.85ZM129.694 30.6C129.827 30 130.027 29.4 130.294 28.8C130.594 28.1667 130.944 27.5833 131.344 27.05C131.744 26.5167 132.194 26.05 132.694 25.65C133.227 25.25 133.794 24.9667 134.394 24.8C135.294 24.5333 136.077 24.4667 136.744 24.6C137.411 24.7333 137.911 25.0333 138.244 25.5C138.577 25.9667 138.727 26.6 138.694 27.4C138.694 28.2 138.444 29.1167 137.944 30.15C137.211 31.05 136.611 31.7333 136.144 32.2C135.744 32.6 135.444 32.8333 135.244 32.9C135.044 32.9667 135.161 32.6 135.594 31.8C136.027 31 136.411 30.2333 136.744 29.5C137.077 28.7667 137.294 28.1167 137.394 27.55C137.494 26.9833 137.444 26.5333 137.244 26.2C137.044 25.8333 136.627 25.6333 135.994 25.6C135.527 25.5667 135.061 25.6667 134.594 25.9C134.161 26.1 133.777 26.4333 133.444 26.9C133.077 27.4 132.677 27.9833 132.244 28.65C131.844 29.3167 131.544 29.9333 131.344 30.5C131.211 30.8333 131.127 31.2333 131.094 31.7C131.061 32.1667 131.127 32.6 131.294 33C131.461 33.3667 131.777 33.6667 132.244 33.9C132.744 34.1 133.461 34.1333 134.394 34C134.861 33.9333 135.094 34.0333 135.094 34.3C135.094 34.5333 134.761 34.6833 134.094 34.75C132.994 34.8833 132.127 34.8333 131.494 34.6C130.861 34.3333 130.394 33.9833 130.094 33.55C129.794 33.1167 129.627 32.6333 129.594 32.1C129.561 31.5667 129.594 31.0667 129.694 30.6ZM133.594 34.65C133.061 35.6167 132.511 36.5667 131.944 37.5C131.411 38.4 130.827 39.2 130.194 39.9C129.561 40.6 128.894 41.1667 128.194 41.6C127.494 42.0333 126.744 42.25 125.944 42.25C124.011 42.25 122.677 41.5667 121.944 40.2C121.511 39.4 121.277 38.7167 121.244 38.15C121.244 37.55 121.344 37.0833 121.544 36.75C121.777 36.3833 122.061 36.15 122.394 36.05C122.727 35.9167 123.011 35.9167 123.244 36.05C123.511 36.15 123.677 36.3833 123.744 36.75C123.844 37.1167 123.744 37.6 123.444 38.2C123.311 38.5 123.277 38.8167 123.344 39.15C123.411 39.45 123.527 39.7333 123.694 40C123.894 40.2667 124.127 40.5 124.394 40.7C124.694 40.8667 125.027 40.95 125.394 40.95C125.961 40.9833 126.444 40.9333 126.844 40.8C127.277 40.6333 127.677 40.3833 128.044 40.05C128.811 39.3833 129.544 38.5667 130.244 37.6C130.977 36.6333 131.644 35.6167 132.244 34.55C132.311 34.4833 132.544 34.4833 132.944 34.55C133.111 34.5833 133.327 34.6167 133.594 34.65Z" fill="#1C8AB8"/>
</svg>
