<svg width="145" height="44" viewBox="0 0 145 44" fill="none" xmlns="http://www.w3.org/2000/svg">
<path d="M29.25 25.9498C29.55 27.8498 30.75 28.7998 32.85 28.7998C34.55 28.7998 36.75 27.8165 39.45 25.8498C42.1833 23.8831 44.6167 21.4831 46.75 18.6498C45.55 17.2165 44.15 15.9998 42.55 14.9998C39.2833 19.2998 34.85 22.9498 29.25 25.9498ZM29.2 25.5998C30.4 24.8998 31.55 24.1831 32.65 23.4498C36.8167 20.5831 40 17.6998 42.2 14.7998C40.9333 13.9331 39.1667 13.0665 36.9 12.1998C35.8333 13.2665 34.8333 14.4165 33.9 15.6498C30.7667 19.7831 29.2 23.0998 29.2 25.5998ZM17.1 30.0498C18.4 23.4498 22.45 16.9331 29.25 10.4998C27.6167 10.2998 25.9 10.1998 24.1 10.1998C17.5667 10.1998 12.0333 11.4665 7.5 13.9998C2.83333 16.5998 0.5 19.7831 0.5 23.5498C0.5 25.4165 1.3 27.0165 2.9 28.3498C4.8 29.9165 7.26667 30.6998 10.3 30.6998C12.4667 30.6998 14.7333 30.4831 17.1 30.0498ZM17 30.4998C15.1333 30.9665 12.8667 31.1998 10.2 31.1998C7.56667 31.1998 5.26667 30.5331 3.3 29.1998C1.1 27.7331 -7.45058e-08 25.8498 -7.45058e-08 23.5498C-7.45058e-08 19.7165 2.3 16.4665 6.9 13.7998C11.5 11.0998 17.2333 9.7498 24.1 9.7498C25.9667 9.7498 27.8333 9.86647 29.7 10.0998C33.1 7.06647 36.55 4.5998 40.05 2.6998C43.35 0.899803 45.9333 -0.000196338 47.8 -0.000196338C50.9667 -0.000196338 52.55 1.71647 52.55 5.1498C52.55 9.4498 50.7667 13.9831 47.2 18.7498C47.7333 19.3165 48.2333 20.0831 48.7 21.0498C48.8 21.1831 48.7833 21.2998 48.65 21.3998C48.4833 21.4665 48.3833 21.3831 48.35 21.1498C48.1833 20.7498 47.7333 20.0165 47 18.9498C44.8333 21.8498 42.3667 24.2831 39.6 26.2498C36.8667 28.2165 34.6167 29.1998 32.85 29.1998C30.65 29.1998 29.3 28.1998 28.8 26.1998C25.9667 27.7998 22.9833 28.9998 19.85 29.7998C18.8833 32.3665 18.4 34.6498 18.4 36.6498C18.4 39.1165 19.4 40.8998 21.4 41.9998C22.7333 42.7665 24.2833 43.1498 26.05 43.1498C31.35 43.1498 37.1667 40.2831 43.5 34.5498L43.85 34.8998C37.3833 40.7331 31.45 43.6498 26.05 43.6498C19.85 43.6498 16.75 40.3665 16.75 33.7998C16.75 32.8331 16.8333 31.7331 17 30.4998ZM20 29.3998C22.9333 28.5998 25.85 27.4331 28.75 25.8998C28.65 25.4998 28.6 25.0665 28.6 24.5998C28.6 20.0665 30.8167 15.7665 35.25 11.6998C33.85 11.3331 32.7333 11.0665 31.9 10.8998C29.7333 13.2331 27.5833 16.0165 25.45 19.2498C22.9833 22.9498 21.1667 26.3331 20 29.3998ZM46.9 18.3998C50.4 13.7998 52.15 9.38314 52.15 5.1498C52.15 2.0498 50.7 0.499803 47.8 0.499803C45.9333 0.499803 43.6 1.3998 40.8 3.1998C38 4.9998 35.15 7.4498 32.25 10.5498C33.0167 10.7165 34.1333 10.9998 35.6 11.3998C37.1667 10.0665 38.7833 8.9498 40.45 8.0498C41.95 7.2498 43.0667 6.8498 43.8 6.8498C44.9 6.8498 45.45 7.43314 45.45 8.5998C45.45 10.1998 44.55 12.2331 42.75 14.6998C44.4167 15.7665 45.8 16.9998 46.9 18.3998ZM42.45 14.4998C44.1833 12.1331 45.05 10.1665 45.05 8.5998C45.05 7.76647 44.6333 7.3498 43.8 7.3498C42.4333 7.3498 40.2167 8.88314 37.15 11.9498C39.1167 12.6498 40.8833 13.4998 42.45 14.4998ZM66.5719 32.8498C66.1719 33.7165 65.7052 34.6831 65.1719 35.7498C64.6385 36.7831 64.0385 37.7665 63.3719 38.6998C62.7052 39.6331 61.9719 40.4165 61.1719 41.0498C60.3719 41.6831 59.5219 41.9998 58.6219 41.9998C58.0552 41.9998 57.5552 41.8665 57.1219 41.5998C56.6885 41.2998 56.3552 40.8831 56.1219 40.3498C55.9219 39.7831 55.8219 39.0998 55.8219 38.2998C55.8219 37.4998 55.9885 36.5998 56.3219 35.5998C55.8885 36.3665 55.4052 37.1331 54.8719 37.8998C54.3719 38.6331 53.8219 39.3165 53.2219 39.9498C52.6552 40.5498 52.0552 41.0498 51.4219 41.4498C50.7885 41.8165 50.1719 41.9998 49.5719 41.9998C49.3052 41.9998 49.0052 41.9831 48.6719 41.9498C48.3719 41.8831 48.0719 41.7665 47.7719 41.5998C47.4719 41.4331 47.1885 41.1998 46.9219 40.8998C46.6885 40.5998 46.5219 40.2165 46.4219 39.7498C46.3219 39.2165 46.3052 38.6998 46.3719 38.1998C46.4385 37.6998 46.5552 37.2165 46.7219 36.7498C46.9219 36.2498 47.1385 35.7831 47.3719 35.3498C47.6385 34.8831 47.8885 34.4165 48.1219 33.9498C47.9552 33.9498 47.7885 33.8998 47.6219 33.7998C47.4885 33.6998 47.5052 33.4831 47.6719 33.1498C47.8385 32.8831 47.9885 32.5998 48.1219 32.2998C48.2552 31.9998 48.4052 31.6998 48.5719 31.3998C49.0719 30.4331 49.5719 29.4665 50.0719 28.4998C50.5719 27.5331 51.0052 26.6665 51.3719 25.8998C51.5719 25.4998 51.8219 25.2331 52.1219 25.0998C52.4552 24.9331 52.8552 24.8498 53.3219 24.8498H56.3719C56.0719 25.0498 55.8052 25.2665 55.5719 25.4998C55.3385 25.6998 55.0885 25.9498 54.8219 26.2498C54.5885 26.5498 54.3385 26.9165 54.0719 27.3498C53.8052 27.7831 53.5052 28.3498 53.1719 29.0498C52.7052 29.9165 52.2885 30.7498 51.9219 31.5498C51.5552 32.2498 51.2052 32.9665 50.8719 33.6998C50.5385 34.4331 50.2552 35.0331 50.0219 35.4998C49.4219 36.7998 49.0885 37.8831 49.0219 38.7498C48.9552 39.6165 49.0719 40.2331 49.3719 40.5998C49.7052 40.9331 50.1885 40.9831 50.8219 40.7498C51.4552 40.4831 52.1719 39.8831 52.9719 38.9498C53.6719 38.1498 54.3552 37.1998 55.0219 36.0998C55.7219 34.9998 56.3885 33.8665 57.0219 32.6998C57.6552 31.4998 58.2552 30.3165 58.8219 29.1498C59.4219 27.9831 59.9552 26.8998 60.4219 25.8998C60.6219 25.4998 60.8719 25.2331 61.1719 25.0998C61.5052 24.9331 61.9052 24.8498 62.3719 24.8498H65.0719C64.7052 25.1498 64.3885 25.4331 64.1219 25.6998C63.8552 25.9331 63.5885 26.2331 63.3219 26.5998C63.0885 26.9331 62.8385 27.3665 62.5719 27.8998C62.3052 28.3998 61.9885 29.0331 61.6219 29.7998C61.2552 30.4998 60.8885 31.2331 60.5219 31.9998C60.1885 32.7331 59.8552 33.4665 59.5219 34.1998C59.2219 34.8998 58.9552 35.5665 58.7219 36.1998C58.4885 36.7998 58.3385 37.3165 58.2719 37.7498C58.0385 38.8165 58.0385 39.5831 58.2719 40.0498C58.5385 40.4831 58.8552 40.7165 59.2219 40.7498C59.8219 40.7498 60.4219 40.4831 61.0219 39.9498C61.6552 39.4165 62.2552 38.7498 62.8219 37.9498C63.3885 37.1165 63.9219 36.2165 64.4219 35.2498C64.9552 34.2498 65.4385 33.2998 65.8719 32.3998C66.0719 31.9665 66.2885 31.8165 66.5219 31.9498C66.7885 32.0498 66.8052 32.3498 66.5719 32.8498ZM82.593 28.4998C82.3263 28.7665 81.9596 29.2665 81.493 29.9998C81.0596 30.6998 80.593 31.5165 80.093 32.4498C79.6263 33.3498 79.193 34.2831 78.793 35.2498C78.393 36.2165 78.1096 37.0831 77.943 37.8498C77.543 39.8498 77.7096 40.8498 78.443 40.8498C78.8096 40.8498 79.193 40.6998 79.593 40.3998C79.993 40.0998 80.3763 39.7331 80.743 39.2998C81.1096 38.8665 81.4596 38.4165 81.793 37.9498C82.1263 37.4498 82.393 37.0165 82.593 36.6498C82.8596 36.2165 83.1096 36.0665 83.343 36.1998C83.6096 36.2998 83.6096 36.5831 83.343 37.0498C82.543 38.4165 81.6763 39.5998 80.743 40.5998C79.8096 41.5665 78.9096 42.0831 78.043 42.1498C77.643 42.1831 77.2096 42.1165 76.743 41.9498C76.2763 41.7498 75.893 41.4165 75.593 40.9498C75.293 40.4498 75.1096 39.7831 75.043 38.9498C75.0096 38.0831 75.1763 36.9998 75.543 35.6998C75.143 36.3665 74.6263 37.1498 73.993 38.0498C73.3596 38.9165 72.6763 39.6998 71.943 40.3998C70.9763 41.3331 70.0763 41.8831 69.243 42.0498C68.443 42.2165 67.7596 42.0998 67.193 41.6998C66.6263 41.2665 66.2096 40.5998 65.943 39.6998C65.7096 38.7998 65.6763 37.7498 65.843 36.5498C66.0096 35.3165 66.4096 33.9831 67.043 32.5498C67.7096 31.0831 68.6763 29.5998 69.943 28.0998C70.6763 27.1998 71.5596 26.4331 72.593 25.7998C73.6596 25.1665 74.7263 24.7165 75.793 24.4498C76.893 24.1831 77.943 24.1498 78.943 24.3498C79.9763 24.5498 80.843 25.0331 81.543 25.7998C81.9096 26.1665 82.0096 26.5165 81.843 26.8498C81.7096 27.1831 81.4263 27.3165 80.993 27.2498C80.7263 26.3165 80.1763 25.7498 79.343 25.5498C78.543 25.3498 77.6763 25.4998 76.743 25.9998C75.6096 26.6331 74.443 27.6165 73.243 28.9498C72.043 30.2498 70.993 31.6498 70.093 33.1498C69.993 33.3165 69.843 33.5831 69.643 33.9498C69.443 34.3165 69.2263 34.7498 68.993 35.2498C68.793 35.7165 68.593 36.2165 68.393 36.7498C68.2263 37.2498 68.1096 37.7331 68.043 38.1998C67.9096 39.0665 67.9596 39.6998 68.193 40.0998C68.4596 40.4998 68.8096 40.6998 69.243 40.6998C69.7096 40.6998 70.243 40.5165 70.843 40.1498C71.443 39.7498 72.043 39.1998 72.643 38.4998C73.5096 37.4331 74.293 36.3165 74.993 35.1498C75.7263 33.9498 76.4263 32.7331 77.093 31.4998C77.6596 30.4331 78.1596 29.6165 78.593 29.0498C79.0596 28.4831 79.693 28.2331 80.493 28.2998C80.8263 28.3331 81.1596 28.3998 81.493 28.4998C81.8596 28.5665 82.2263 28.5665 82.593 28.4998ZM99.343 25.8998C99.543 25.4998 99.793 25.2331 100.093 25.0998C100.426 24.9331 100.826 24.8498 101.293 24.8498H103.993C103.626 25.1498 103.31 25.4331 103.043 25.6998C102.776 25.9331 102.51 26.2331 102.243 26.5998C102.01 26.9331 101.76 27.3665 101.493 27.8998C101.226 28.3998 100.91 29.0331 100.543 29.7998C100.176 30.4998 99.8096 31.2331 99.443 31.9998C99.1096 32.7331 98.7763 33.4665 98.443 34.1998C98.143 34.8998 97.8763 35.5665 97.643 36.1998C97.4096 36.7998 97.2596 37.3165 97.193 37.7498C96.9596 38.8165 96.9596 39.5831 97.193 40.0498C97.4596 40.4831 97.7763 40.7165 98.143 40.7498C98.743 40.7498 99.343 40.4831 99.943 39.9498C100.576 39.4165 101.176 38.7498 101.743 37.9498C102.31 37.1165 102.843 36.2165 103.343 35.2498C103.876 34.2498 104.36 33.2998 104.793 32.3998C104.993 31.9665 105.21 31.8165 105.443 31.9498C105.71 32.0498 105.726 32.3498 105.493 32.8498C105.093 33.7165 104.626 34.6831 104.093 35.7498C103.56 36.7831 102.96 37.7665 102.293 38.6998C101.626 39.6331 100.893 40.4165 100.093 41.0498C99.293 41.6831 98.443 41.9998 97.543 41.9998C96.9763 41.9998 96.4763 41.8665 96.043 41.5998C95.6096 41.2998 95.2763 40.8831 95.043 40.3498C94.843 39.7831 94.743 39.0998 94.743 38.2998C94.743 37.4998 94.9096 36.5998 95.243 35.5998C95.4763 34.8665 95.7596 34.0831 96.093 33.2498C96.4263 32.4165 96.7763 31.5831 97.143 30.7498C97.543 29.8831 97.9263 29.0331 98.293 28.1998C98.693 27.3665 99.043 26.5998 99.343 25.8998ZM88.593 39.7998C89.2596 39.2331 89.8596 38.5498 90.393 37.7498C90.9596 36.9165 91.4763 36.0331 91.943 35.0998C92.443 34.1665 92.893 33.2165 93.293 32.2498C93.7263 31.2831 94.1263 30.3831 94.493 29.5498C94.8596 28.6831 95.2096 27.9331 95.543 27.2998C95.8763 26.6331 96.2263 26.1331 96.593 25.7998C96.8596 25.5331 97.1263 25.3331 97.393 25.1998C97.6596 25.0665 97.9763 24.9831 98.343 24.9498C98.7096 24.8831 99.1263 24.8498 99.593 24.8498C100.093 24.8498 100.71 24.8498 101.443 24.8498C101.576 24.8498 101.593 24.8998 101.493 24.9998C101.393 25.0665 101.243 25.1498 101.043 25.2498C100.843 25.3498 100.593 25.4498 100.293 25.5498C100.026 25.6165 99.793 25.6498 99.593 25.6498C98.6263 25.6165 97.943 25.8165 97.543 26.2498C97.143 26.6498 96.7263 27.2331 96.293 27.9998C95.7596 28.9665 95.1763 30.2331 94.543 31.7998C93.943 33.3665 93.243 34.9165 92.443 36.4498C91.6763 37.9498 90.793 39.2498 89.793 40.3498C88.8263 41.4498 87.693 41.9998 86.393 41.9998C85.593 41.9998 84.843 41.8665 84.143 41.5998C83.4763 41.2998 82.9263 40.7498 82.493 39.9498C81.893 38.8498 81.7096 37.9665 81.943 37.2998C82.2096 36.6331 82.5763 36.2165 83.043 36.0498C83.5096 35.8498 83.9096 35.9331 84.243 36.2998C84.5763 36.6331 84.5263 37.2665 84.093 38.1998C83.9596 38.4665 83.9263 38.7498 83.993 39.0498C84.0596 39.3498 84.1763 39.6331 84.343 39.8998C84.543 40.1331 84.7763 40.3331 85.043 40.4998C85.343 40.6331 85.643 40.6998 85.943 40.6998C86.5096 40.6665 86.993 40.5998 87.393 40.4998C87.8263 40.3665 88.2263 40.1331 88.593 39.7998ZM123.394 24.8498C123.027 25.1498 122.711 25.4331 122.444 25.6998C122.177 25.9331 121.911 26.2331 121.644 26.5998C121.411 26.9331 121.161 27.3665 120.894 27.8998C120.627 28.3998 120.311 29.0331 119.944 29.7998C119.577 30.4998 119.211 31.2331 118.844 31.9998C118.511 32.7331 118.177 33.4665 117.844 34.1998C117.544 34.8998 117.277 35.5665 117.044 36.1998C116.811 36.7998 116.661 37.3165 116.594 37.7498C116.361 38.8165 116.361 39.5831 116.594 40.0498C116.861 40.4831 117.177 40.7165 117.544 40.7498C118.311 40.7498 119.061 40.3665 119.794 39.5998C120.561 38.7998 121.327 37.7498 122.094 36.4498C122.361 36.0498 122.611 35.9165 122.844 36.0498C123.111 36.1498 123.111 36.4331 122.844 36.8998C122.477 37.5331 122.077 38.1498 121.644 38.7498C121.211 39.3498 120.744 39.8998 120.244 40.3998C119.777 40.8665 119.261 41.2498 118.694 41.5498C118.127 41.8498 117.544 41.9998 116.944 41.9998C116.377 41.9998 115.877 41.8665 115.444 41.5998C115.011 41.2998 114.677 40.8831 114.444 40.3498C114.244 39.7831 114.144 39.0998 114.144 38.2998C114.144 37.4998 114.311 36.5998 114.644 35.5998C114.211 36.3665 113.727 37.1331 113.194 37.8998C112.694 38.6331 112.144 39.3165 111.544 39.9498C110.977 40.5498 110.377 41.0498 109.744 41.4498C109.111 41.8165 108.494 41.9998 107.894 41.9998C107.627 41.9998 107.327 41.9831 106.994 41.9498C106.694 41.8831 106.394 41.7665 106.094 41.5998C105.794 41.4331 105.511 41.1998 105.244 40.8998C105.011 40.5998 104.844 40.2165 104.744 39.7498C104.644 39.2165 104.627 38.6998 104.694 38.1998C104.761 37.6998 104.877 37.2165 105.044 36.7498C105.244 36.2498 105.461 35.7831 105.694 35.3498C105.961 34.8831 106.211 34.4165 106.444 33.9498C106.277 33.9498 106.111 33.8998 105.944 33.7998C105.811 33.6998 105.827 33.4831 105.994 33.1498C106.161 32.8831 106.311 32.5998 106.444 32.2998C106.577 31.9998 106.727 31.6998 106.894 31.3998C107.394 30.4331 107.894 29.4665 108.394 28.4998C108.894 27.5331 109.327 26.6665 109.694 25.8998C109.894 25.4998 110.144 25.2331 110.444 25.0998C110.777 24.9331 111.177 24.8498 111.644 24.8498H114.694C114.394 25.0498 114.127 25.2665 113.894 25.4998C113.661 25.6998 113.411 25.9498 113.144 26.2498C112.911 26.5498 112.661 26.9165 112.394 27.3498C112.127 27.7831 111.827 28.3498 111.494 29.0498C111.027 29.9165 110.611 30.7498 110.244 31.5498C109.877 32.2498 109.527 32.9665 109.194 33.6998C108.861 34.4331 108.577 35.0331 108.344 35.4998C107.744 36.7998 107.411 37.8831 107.344 38.7498C107.277 39.6165 107.394 40.2331 107.694 40.5998C108.027 40.9331 108.511 40.9831 109.144 40.7498C109.777 40.4831 110.494 39.8831 111.294 38.9498C111.994 38.1498 112.677 37.1998 113.344 36.0998C114.044 34.9998 114.711 33.8665 115.344 32.6998C115.977 31.4998 116.577 30.3165 117.144 29.1498C117.744 27.9831 118.277 26.8998 118.744 25.8998C118.944 25.4998 119.194 25.2331 119.494 25.0998C119.827 24.9331 120.227 24.8498 120.694 24.8498H123.394ZM136.594 34.8498C136.361 35.3165 136.111 35.8998 135.844 36.5998C135.611 37.2665 135.444 37.9331 135.344 38.5998C135.244 39.2331 135.261 39.7831 135.394 40.2498C135.561 40.7165 135.944 40.9498 136.544 40.9498C137.177 40.9498 137.827 40.5998 138.494 39.8998C139.194 39.1998 139.844 38.3831 140.444 37.4498C141.044 36.5165 141.577 35.5831 142.044 34.6498C142.544 33.6831 142.927 32.9331 143.194 32.3998C143.394 31.9665 143.611 31.8165 143.844 31.9498C144.111 32.0498 144.127 32.3498 143.894 32.8498C143.527 33.6165 143.061 34.5331 142.494 35.5998C141.961 36.6665 141.344 37.6998 140.644 38.6998C139.944 39.6665 139.177 40.4998 138.344 41.1998C137.511 41.8998 136.611 42.2498 135.644 42.2498C135.244 42.2498 134.844 42.1498 134.444 41.9498C134.077 41.7165 133.727 41.3665 133.394 40.8998C133.127 40.4665 132.944 39.8165 132.844 38.9498C132.777 38.0831 132.894 37.2665 133.194 36.4998C133.594 35.6665 133.944 34.9331 134.244 34.2998C134.577 33.6331 134.894 32.9998 135.194 32.3998C135.527 31.7998 135.861 31.1831 136.194 30.5498C136.561 29.9165 136.961 29.1998 137.394 28.3998C137.727 27.7998 137.994 27.2998 138.194 26.8998C138.427 26.4665 138.644 26.1331 138.844 25.8998C139.077 25.6331 139.311 25.4498 139.544 25.3498C139.811 25.2498 140.144 25.2165 140.544 25.2498C140.877 25.2831 141.211 25.3498 141.544 25.4498C141.911 25.5165 142.277 25.5165 142.644 25.4498C142.277 25.6498 141.827 26.0831 141.294 26.7498C140.794 27.4165 140.261 28.1998 139.694 29.0998C139.161 29.9998 138.611 30.9665 138.044 31.9998C137.511 32.9998 137.027 33.9498 136.594 34.8498ZM129.694 30.5998C129.827 29.9998 130.027 29.3998 130.294 28.7998C130.594 28.1665 130.944 27.5831 131.344 27.0498C131.744 26.5165 132.194 26.0498 132.694 25.6498C133.227 25.2498 133.794 24.9665 134.394 24.7998C135.294 24.5331 136.077 24.4665 136.744 24.5998C137.411 24.7331 137.911 25.0331 138.244 25.4998C138.577 25.9665 138.727 26.5998 138.694 27.3998C138.694 28.1998 138.444 29.1165 137.944 30.1498C137.211 31.0498 136.611 31.7331 136.144 32.1998C135.744 32.5998 135.444 32.8331 135.244 32.8998C135.044 32.9665 135.161 32.5998 135.594 31.7998C136.027 30.9998 136.411 30.2331 136.744 29.4998C137.077 28.7665 137.294 28.1165 137.394 27.5498C137.494 26.9831 137.444 26.5331 137.244 26.1998C137.044 25.8331 136.627 25.6331 135.994 25.5998C135.527 25.5665 135.061 25.6665 134.594 25.8998C134.161 26.0998 133.777 26.4331 133.444 26.8998C133.077 27.3998 132.677 27.9831 132.244 28.6498C131.844 29.3165 131.544 29.9331 131.344 30.4998C131.211 30.8331 131.127 31.2331 131.094 31.6998C131.061 32.1665 131.127 32.5998 131.294 32.9998C131.461 33.3665 131.777 33.6665 132.244 33.8998C132.744 34.0998 133.461 34.1331 134.394 33.9998C134.861 33.9331 135.094 34.0331 135.094 34.2998C135.094 34.5331 134.761 34.6831 134.094 34.7498C132.994 34.8831 132.127 34.8331 131.494 34.5998C130.861 34.3331 130.394 33.9831 130.094 33.5498C129.794 33.1165 129.627 32.6331 129.594 32.0998C129.561 31.5665 129.594 31.0665 129.694 30.5998ZM133.594 34.6498C133.061 35.6165 132.511 36.5665 131.944 37.4998C131.411 38.3998 130.827 39.1998 130.194 39.8998C129.561 40.5998 128.894 41.1665 128.194 41.5998C127.494 42.0331 126.744 42.2498 125.944 42.2498C124.011 42.2498 122.677 41.5665 121.944 40.1998C121.511 39.3998 121.277 38.7165 121.244 38.1498C121.244 37.5498 121.344 37.0831 121.544 36.7498C121.777 36.3831 122.061 36.1498 122.394 36.0498C122.727 35.9165 123.011 35.9165 123.244 36.0498C123.511 36.1498 123.677 36.3831 123.744 36.7498C123.844 37.1165 123.744 37.5998 123.444 38.1998C123.311 38.4998 123.277 38.8165 123.344 39.1498C123.411 39.4498 123.527 39.7331 123.694 39.9998C123.894 40.2665 124.127 40.4998 124.394 40.6998C124.694 40.8665 125.027 40.9498 125.394 40.9498C125.961 40.9831 126.444 40.9331 126.844 40.7998C127.277 40.6331 127.677 40.3831 128.044 40.0498C128.811 39.3831 129.544 38.5665 130.244 37.5998C130.977 36.6331 131.644 35.6165 132.244 34.5498C132.311 34.4831 132.544 34.4831 132.944 34.5498C133.111 34.5831 133.327 34.6165 133.594 34.6498Z" fill="white" fill-opacity="0.95"/>
</svg>
