<svg preserveAspectRatio="none" width="100%" height="100%" overflow="visible" style="display: block;" viewBox="0 0 141.511 20" fill="none" xmlns="http://www.w3.org/2000/svg">
<g id="&#208;&#151;&#208;&#178;&#208;&#181;&#208;&#183;&#208;&#180;&#209;&#139; 1">
<path id="Star 11" d="M9.89919 0L12.9831 5.65463L19.3139 6.84017L14.889 11.5205L15.7178 17.9078L9.89919 15.1458L4.08059 17.9078L4.90941 11.5205L0.484501 6.84017L6.81534 5.65463L9.89919 0Z" fill="var(--fill-0, #FFCD61)"/>
<path id="Star 12" d="M40.2808 0.100807L43.3647 5.75543L49.6955 6.94098L45.2706 11.6213L46.0994 18.0086L40.2808 15.2466L34.4622 18.0086L35.291 11.6213L30.8661 6.94098L37.197 5.75543L40.2808 0.100807Z" fill="var(--fill-0, #FFCD61)"/>
<path id="Star 13" d="M70.4556 0.100807L73.5395 5.75543L79.8703 6.94098L75.4454 11.6213L76.2742 18.0086L70.4556 15.2466L64.637 18.0086L65.4658 11.6213L61.0409 6.94098L67.3718 5.75543L70.4556 0.100807Z" fill="var(--fill-0, #FFCD61)"/>
<path id="Star 14" d="M100.631 0.100807L103.715 5.75543L110.046 6.94098L105.621 11.6213L106.449 18.0086L100.631 15.2466L94.8123 18.0086L95.6411 11.6213L91.2162 6.94098L97.547 5.75543L100.631 0.100807Z" fill="var(--fill-0, #FFCD61)"/>
<path id="Star 15" d="M131.612 0.201615L134.696 5.85624L141.027 7.04179L136.602 11.7221L137.431 18.1094L131.612 15.3474L125.793 18.1094L126.622 11.7221L122.197 7.04179L128.528 5.85624L131.612 0.201615Z" fill="url(#paint0_linear_0_6)"/>
</g>
<defs>
<linearGradient id="paint0_linear_0_6" x1="122.295" y1="10.1008" x2="149.081" y2="10.1008" gradientUnits="userSpaceOnUse">
<stop stop-color="#FFCD61"/>
<stop offset="1" stop-color="#997B3A" stop-opacity="0"/>
</linearGradient>
</defs>
</svg>
